<svg width="125" height="55" viewBox="0 0 125 55" fill="none" xmlns="http://www.w3.org/2000/svg">
<path d="M13.7305 50.6406C14.4336 50.0547 15.4062 48.9766 16.6484 47.4062C17.8906 45.8359 19.0625 44.2422 20.1641 42.625C21.2891 40.9844 21.9805 39.8008 22.2383 39.0742C17.668 43.5039 14.832 47.3594 13.7305 50.6406ZM12.5 54.6836C12.1484 54.6836 11.4219 54.6367 10.3203 54.543C9.3125 54.4727 8.80859 53.6992 8.80859 52.2227C8.94922 50.1836 9.40625 48.4844 10.1797 47.125C10.4141 46.7031 10.5312 46.3633 10.5312 46.1055C10.5312 45.918 10.4727 45.6953 10.3555 45.4375C8.87891 42.2266 8.01172 38.5938 7.75391 34.5391C7.66016 33.1094 7.61328 31.7031 7.61328 30.3203C7.61328 27.7656 7.82422 24.9414 8.24609 21.8477C8.66797 18.7539 9.3125 16.0234 10.1797 13.6562C11 11.4062 11.7852 10.2812 12.5352 10.2812H12.6406C12.9219 10.375 13.168 10.4453 13.3789 10.4922C13.8945 10.5859 14.2578 10.75 14.4688 10.9844C14.6797 11.1953 14.7969 11.6992 14.8203 12.4961C14.8203 13.293 14.7383 15.4375 14.5742 18.9297C14.3867 23.2891 14.2109 26.6406 14.0469 28.9844C13.8125 32.2422 13.6953 35.1836 13.6953 37.8086C13.6953 38.7461 13.707 39.6367 13.7305 40.4805C13.7539 40.5273 13.7656 40.5977 13.7656 40.6914C13.7656 40.7852 13.7656 40.8906 13.7656 41.0078C13.7891 41.125 13.8477 41.2305 13.9414 41.3242C14.0586 41.3008 14.4102 40.9727 14.9961 40.3398C17.7383 37.2695 21.2539 34.3047 25.543 31.4453C26.1055 31.0703 26.4922 30.5781 26.7031 29.9688C27.5938 27.25 28.0391 24.707 28.0391 22.3398C28.0391 20.957 27.7578 19.082 27.1953 16.7148C26.6328 14.3477 25.2031 12.1797 22.9062 10.2109C20.8203 8.42969 18.4297 7.53906 15.7344 7.53906C15.4531 7.53906 14.4688 7.59766 12.7812 7.71484C11.1172 7.83203 8.75 9.42578 5.67969 12.4961C4.34375 13.9258 3.67578 15.1445 3.67578 16.1523C3.67578 16.3867 3.73438 16.6562 3.85156 16.9609C3.94531 17.2656 4.08594 17.5234 4.27344 17.7344C4.4375 17.9453 4.53125 18.0977 4.55469 18.1914C3.92188 18.4492 3.35938 18.5781 2.86719 18.5781C2.02344 18.5781 1.41406 18.1914 1.03906 17.418C0.78125 16.9023 0.652344 16.3047 0.652344 15.625C0.652344 14.7578 0.957031 13.5742 1.56641 12.0742C2.15234 10.5742 3.61719 9.0625 5.96094 7.53906C8.30469 5.99219 11.5156 5.20703 15.5938 5.18359C20.1641 5.39453 23.6562 6.54297 26.0703 8.62891C28.4844 10.7148 30.1484 13.1406 31.0625 15.9062C32 18.6719 32.5273 21.1445 32.6445 23.3242C32.6914 24.5898 32.7148 25.5508 32.7148 26.207C32.7148 26.7227 32.7031 27.0625 32.6797 27.2266V27.2969C32.8672 27.2969 33.8164 26.9453 35.5273 26.2422C40.8242 24.0859 44.1523 23.0078 45.5117 23.0078C45.7695 23.0078 45.957 23.043 46.0742 23.1133C46.2852 23.2539 46.3906 23.3711 46.3906 23.4648C46.3906 23.6289 45.9453 23.8867 45.0547 24.2383C42.0312 25.4102 37.7188 27.7656 32.1172 31.3047C31.8359 31.5625 31.3203 32.5938 30.5703 34.3984C29.8906 36.0625 28.9883 38.043 27.8633 40.3398C25.0742 46.0586 21.875 50.2773 18.2656 52.9961C16.8828 53.9336 15.582 54.4609 14.3633 54.5781C13.6836 54.6484 13.0625 54.6836 12.5 54.6836ZM49.8008 36.0508C50.2227 36.0508 51.2422 35.0898 52.8594 33.168C54.0781 31.6914 55.2148 29.9102 56.2695 27.8242C57.3945 25.5742 57.957 23.3945 57.957 21.2852C57.957 19.2461 57.1367 17.3945 55.4961 15.7305C55.3086 15.543 55.168 15.4492 55.0742 15.4492C54.957 15.4492 54.8047 15.543 54.6172 15.7305C53.7969 16.5273 53.1172 17.418 52.5781 18.4023C51.1016 21.2617 50.0938 24.0977 49.5547 26.9102C49.1094 29.0898 48.8867 30.9531 48.8867 32.5C48.8867 34.8672 49.1914 36.0508 49.8008 36.0508ZM50.0117 39.6719C49.4023 39.6719 48.7578 39.5664 48.0781 39.3555C48.0078 39.332 47.8906 39.3203 47.7266 39.3203C47.6094 39.3438 47.4688 39.3555 47.3047 39.3555C47.1406 39.3555 46.8945 39.3438 46.5664 39.3203C46.2617 39.2734 45.8633 39.0859 45.3711 38.7578C44.9023 38.4297 44.4336 37.8672 43.9648 37.0703C43.1445 35.5469 42.7344 33.707 42.7344 31.5508C42.7344 31.2227 42.7695 30.332 42.8398 28.8789C42.9102 27.4258 43.4141 25.3867 44.3516 22.7617C45.2891 20.1133 46.4961 17.8047 47.9727 15.8359C49.4727 13.8672 51.1133 12.6133 52.8945 12.0742C53.3398 11.9336 53.7852 11.8633 54.2305 11.8633C55.543 11.8633 56.8789 12.4727 58.2383 13.6914C60.1836 15.4258 61.1562 17.8633 61.1562 21.0039V21.4961C61.1562 21.8711 61.2734 22.1758 61.5078 22.4102C61.9766 22.9023 62.2695 23.6055 62.3867 24.5195C62.5273 25.4102 62.6094 26.4648 62.6328 27.6836C62.6562 29.3945 62.8438 31.2109 63.1953 33.1328C63.2656 33.4141 63.3594 33.6016 63.4766 33.6953C64.7891 33.2031 65.9727 32.207 67.0273 30.707C68.1055 29.207 69.043 27.6953 69.8398 26.1719C71.0586 23.8984 71.9141 22.7383 72.4062 22.6914C72.7344 22.7383 72.8984 22.8789 72.8984 23.1133L72.8633 23.3242C72.582 24.0273 72.3125 24.7656 72.0547 25.5391C71.4453 27.3906 70.7539 29.1719 69.9805 30.8828C68.293 34.5156 66.0898 36.332 63.3711 36.332C63.1133 36.332 62.8555 36.3203 62.5977 36.2969C62.3633 36.2734 62.1172 36.2617 61.8594 36.2617C61.3672 36.2617 60.8867 36.1797 60.418 36.0156C59.9727 35.8281 59.5508 35.3594 59.1523 34.6094C58.7773 33.8359 58.4727 32.5938 58.2383 30.8828C58.0508 31 57.7578 31.4922 57.3594 32.3594C55.9766 35.5703 54.3477 37.7734 52.4727 38.9688C51.7461 39.4375 50.9258 39.6719 50.0117 39.6719ZM79.9297 9.89453C80.3984 8.95703 80.6328 8.14844 80.6328 7.46875L80.5273 7.75C80.1992 8.40625 80 9.12109 79.9297 9.89453ZM78.9102 44.0664C78.043 44.0664 77.0234 43.8438 75.8516 43.3984C74.6797 42.9531 73.6836 42.1562 72.8633 41.0078C71.5039 38.9219 70.6953 36.4727 70.4375 33.6602C70.3203 32.418 70.2617 31.1758 70.2617 29.9336C70.2617 28.3867 70.3906 26.5352 70.6484 24.3789C71.1172 20.6992 71.8672 17.3242 72.8984 14.2539C72.875 14.2305 72.8164 14.2188 72.7227 14.2188C72.4883 14.2188 71.3164 14.4883 69.207 15.0273C66.1602 15.8477 64.3203 16.2578 63.6875 16.2578C63.4531 16.2578 63.2188 16.2461 62.9844 16.2227C62.7266 16.1758 62.4805 16.1523 62.2461 16.1523C62.0117 16.1289 61.8945 15.918 61.8945 15.5195C61.8945 14.8867 62.2109 14.4414 62.8438 14.1836C65.8906 12.918 68.75 12.0156 71.4219 11.4766C72.3359 11.2891 73.0391 11.1016 73.5312 10.9141C74.0469 10.7266 74.3867 10.4336 74.5508 10.0352C77.082 3.68359 79.4492 0.507812 81.6523 0.507812C82.332 0.507812 82.8828 0.777344 83.3047 1.31641C83.75 1.83203 83.9844 2.34766 84.0078 2.86328C83.9844 3.96484 83.6211 5.73438 82.918 8.17188C82.7773 8.73438 82.6836 9.0625 82.6367 9.15625C82.6133 9.25 82.6016 9.37891 82.6016 9.54297L82.6367 9.82422C85.4258 9.89453 87.4766 10.1875 88.7891 10.7031C90.4297 11.3594 91.25 12.0977 91.25 12.918C91.25 13.1992 91.1094 13.4102 90.8281 13.5508C90.7109 13.5977 90.5938 13.6211 90.4766 13.6211C90.125 13.6211 89.7031 13.4102 89.2109 12.9883C88.7422 12.543 87.9336 12.2031 86.7852 11.9688C86.1758 11.8516 85.5781 11.793 84.9922 11.793C84.4766 11.793 83.8086 11.8633 82.9883 12.0039C82.1914 12.1445 81.6406 12.6133 81.3359 13.4102C80.6094 15.7539 79.9062 17.6406 79.2266 19.0703C78.5703 20.5 78.0078 21.625 77.5391 22.4453C77.0703 23.2422 76.8125 23.8281 76.7656 24.2031C76.5781 25.9609 76.4844 27.7305 76.4844 29.5117C76.4844 30.4727 76.5312 31.8906 76.625 33.7656C76.7188 35.6172 77.4102 37.7734 78.6992 40.2344C78.8633 40.4688 79.0977 40.5859 79.4023 40.5859C79.8711 40.5859 80.6328 40.1875 81.6875 39.3906C82.7656 38.5938 84.0898 37.1406 85.6602 35.0312C87.793 32.125 89.4336 29.0195 90.582 25.7148C91.0977 24.1914 91.5664 23.4297 91.9883 23.4297C92.1523 23.4297 92.3516 23.5117 92.5859 23.6758C93.1016 23.957 93.3594 24.3672 93.3594 24.9062C93.3594 25.4453 93.1953 26.2305 92.8672 27.2617C89.4688 38.4648 84.8164 44.0664 78.9102 44.0664ZM97.1914 23.6055C97.2617 23.6055 97.3438 23.582 97.4375 23.5352C98.8672 22.832 99.8398 22.0352 100.355 21.1445C100.73 20.5117 100.918 19.9844 100.918 19.5625C100.918 19.0703 100.754 18.8242 100.426 18.8242C100.215 18.8242 99.8398 19.0352 99.3008 19.457C98.7852 19.8555 98.0352 21.1094 97.0508 23.2188L97.0156 23.4297C97.0156 23.5469 97.0742 23.6055 97.1914 23.6055ZM98.4922 40.4102C98 40.4102 97.5078 40.375 97.0156 40.3047C96.875 40.2812 96.7227 40.2695 96.5586 40.2695H96.2773C95.1992 40.2695 94.1914 39.9531 93.2539 39.3203C90.7695 37.375 89.5273 34.6328 89.5273 31.0938C89.5273 28.9609 90.0078 26.6875 90.9688 24.2734C91.9531 21.8594 93.418 19.8438 95.3633 18.2266C96.8164 17.0312 98.3633 16.4336 100.004 16.4336C100.543 16.4336 101.082 16.4922 101.621 16.6094C102.98 17.0781 103.66 17.9805 103.66 19.3164C103.66 19.4102 103.625 19.8672 103.555 20.6875C103.508 21.4844 102.875 22.5391 101.656 23.8516C100.555 25.0469 99.1719 25.6445 97.5078 25.6445L96.5938 25.5742C96.4531 25.5742 96.3359 25.6094 96.2422 25.6797C96.1484 25.7266 96.0664 25.9141 95.9961 26.2422C95.6445 27.7656 95.4688 29.3359 95.4688 30.9531C95.4688 31.1406 95.4805 31.7383 95.5039 32.7461C95.5273 33.7539 95.8086 34.8203 96.3477 35.9453C96.7695 36.8125 97.3438 37.2461 98.0703 37.2461C98.3047 37.2461 98.5508 37.1992 98.8086 37.1055C101.223 36.0977 103.438 34.6445 105.453 32.7461C107.469 30.8242 109.203 28.9961 110.656 27.2617C111.523 26.2539 112.273 25.4336 112.906 24.8008C113.539 24.168 114.031 23.8516 114.383 23.8516C114.992 23.8984 115.297 24.1562 115.297 24.625C115.297 24.7656 115.25 24.9297 115.156 25.1172C111.781 31.4219 108.172 35.8867 104.328 38.5117C102.5 39.7773 100.555 40.4102 98.4922 40.4102ZM121.168 32.8516C120.395 32.8516 119.844 32.7695 119.516 32.6055C118.859 32.2539 118.531 30.5078 118.531 27.3672C118.531 24.5312 118.648 20.7578 118.883 16.0469C119.211 9.83594 119.656 6.73047 120.219 6.73047C120.289 6.73047 120.348 6.75391 120.395 6.80078C120.535 6.94141 120.676 7.01172 120.816 7.01172C121.074 7.01172 121.332 6.97656 121.59 6.90625C123.418 7 124.332 9.21484 124.332 13.5508C124.332 16.293 124.004 19.5508 123.348 23.3242C122.832 26.5352 122.539 28.832 122.469 30.2148C122.398 31.3633 122.281 32.0898 122.117 32.3945C121.953 32.6992 121.637 32.8516 121.168 32.8516ZM121.273 41.3594C121.109 41.3594 120.91 41.3477 120.676 41.3242C120.465 41.3008 120.184 41.2891 119.832 41.2891H119.27C118.801 41.2656 118.566 40.8438 118.566 40.0234C118.566 39.2734 118.742 38.6055 119.094 38.0195C119.258 37.7617 119.434 37.6328 119.621 37.6328C119.691 37.6328 119.75 37.6445 119.797 37.668C119.867 37.6914 119.949 37.7031 120.043 37.7031H120.5C120.875 37.7031 121.273 37.8555 121.695 38.1602C122.117 38.4414 122.48 38.793 122.785 39.2148C122.996 39.5195 123.102 39.7773 123.102 39.9883C123.102 40.0586 123.09 40.1172 123.066 40.1641C122.691 40.7734 122.34 41.1367 122.012 41.2539C121.801 41.3242 121.555 41.3594 121.273 41.3594Z" fill="black"/>
</svg>
