<svg width="499" height="82" viewBox="0 0 499 82" fill="none" xmlns="http://www.w3.org/2000/svg">
<path d="M12.0374 30.1894C14.5836 28.7823 16.7277 26.5208 18.4699 23.4051C20.8485 19.1838 22.0379 15.1467 22.0379 11.2939C22.0379 9.2503 21.6191 7.55842 20.7815 6.21832C19.81 7.3574 18.7044 9.43456 17.4648 12.4498C16.2587 15.4315 15.1364 18.5975 14.0978 21.9477C13.0927 25.2645 12.4059 28.0117 12.0374 30.1894ZM13.4947 77.1766C14.3323 77.1766 15.2369 76.1381 16.2084 74.0609C17.2805 71.4477 17.8166 68.6335 17.8166 65.6183C17.8166 63.6081 17.3978 60.6934 16.5602 56.8741C15.7226 53.0213 13.3105 49.1685 9.32366 45.3157C8.78762 47.5604 8.5196 50.4584 8.5196 54.0097C8.5196 54.5457 8.53636 56.0533 8.56986 58.5325C8.60336 61.0117 8.95514 64.2279 9.62519 68.1812C10.2952 72.168 11.1998 74.9152 12.3389 76.4228C12.7074 76.9254 13.0927 77.1766 13.4947 77.1766ZM12.5399 81.2472C9.7257 81.2472 7.24651 80.0746 5.10235 77.7294C2.95819 75.4178 1.51758 71.5817 0.780525 66.2213C0.344992 63.3066 0.127226 60.2076 0.127226 56.9244C0.127226 54.2107 0.361743 50.4919 0.830778 45.768C1.26631 41.0107 2.28814 35.4493 3.89626 29.0838C5.53788 22.6848 7.46428 17.0564 9.67544 12.1985C11.9201 7.34065 14.2653 3.9234 16.711 1.94675C17.8501 1.04218 18.9724 0.589896 20.078 0.589896C21.3511 0.589896 22.5907 1.19294 23.7968 2.39903C25.0698 3.83964 25.7064 6.35233 25.7064 9.9371C25.7064 12.9523 25.1704 16.2691 24.0983 19.8873C23.0597 23.4721 21.2673 26.7051 18.7211 29.5863C16.7445 31.6635 14.7678 32.8528 12.7912 33.1543C12.2551 33.2883 11.8364 33.4391 11.5348 33.6066C11.0323 33.9416 10.4795 36.3538 9.87646 40.8432L10.2785 40.8934C10.5465 40.8934 10.7978 40.8432 11.0323 40.7427C22.4231 37.3924 29.3414 34.1259 31.7871 30.9432C32.3566 30.3066 32.8592 29.9884 33.2947 29.9884C34.0318 29.9884 34.4003 30.3234 34.4003 30.9934C34.4003 31.2949 34.216 31.9482 33.8475 32.9533C33.5125 33.9249 31.8039 35.4995 28.7216 37.6772C25.6394 39.8213 20.8318 41.865 14.2988 43.8081C13.9973 43.9086 13.8465 44.0427 13.8465 44.2102C13.8465 44.3777 13.9303 44.4949 14.0978 44.5619C17.9506 49.9558 20.3627 55.2827 21.3343 60.5426C21.7698 63.0553 21.9876 65.3838 21.9876 67.5279C21.9876 69.9401 21.5856 72.57 20.7815 75.4178C20.011 78.2655 18.5704 80.0411 16.4597 80.7447C15.0526 81.0797 13.746 81.2472 12.5399 81.2472ZM40.1795 49.7883C42.9602 49.2858 45.4896 47.3594 47.7678 44.0092C49.0409 42.0995 49.6774 40.6757 49.6774 39.7376C49.6774 39.2015 49.4597 38.9168 49.0241 38.8833C44.8363 38.7158 41.6368 38.2132 39.4257 37.3757C38.8896 37.2081 38.5211 37.1244 38.3201 37.1244H38.1693C37.7673 38.632 37.5663 40.6086 37.5663 43.0543C37.5663 47.5437 38.4038 49.7883 40.079 49.7883H40.1795ZM48.8734 35.8178C49.7779 35.8178 50.247 35.6168 50.2805 35.2147C50.18 31.496 49.5602 28.2965 48.4211 25.6163C47.282 22.9361 46.0257 20.9929 44.6521 19.7868C43.8145 19.0833 43.0607 18.7315 42.3906 18.7315C41.9551 18.7315 41.5196 18.899 41.084 19.234C40.682 19.5691 40.481 19.8538 40.481 20.0884C40.481 20.2224 40.5983 20.4066 40.8328 20.6411C41.5028 21.2107 41.8379 22.065 41.8379 23.2041V23.5056C41.8379 23.8071 41.6201 24.0082 41.1846 24.1087C40.749 24.1757 40.4643 24.4939 40.3302 25.0635C39.5597 27.9447 39.1744 29.6366 39.1744 30.1391C39.1744 30.4741 39.2414 30.7589 39.3754 30.9934C39.878 32.032 40.6988 32.9031 41.8379 33.6066C43.0104 34.3102 44.2333 34.863 45.5064 35.265C46.813 35.6335 47.9353 35.8178 48.8734 35.8178ZM39.2247 53.8086C38.1191 53.8086 36.9297 53.7249 35.6566 53.5574C32.7754 53.0213 30.8993 51.497 30.0282 48.9843C29.3917 47.2086 29.0734 45.2152 29.0734 43.0041C29.0734 39.4528 29.7434 35.399 31.0835 30.8427C31.1841 30.4406 31.2846 29.7873 31.3851 28.8828C31.5191 27.3417 31.8374 25.5158 32.3399 23.4051C33.5795 18.1452 36.4942 15.465 41.084 15.3645C44.3338 15.5655 46.8632 16.9391 48.6724 19.4853C50.515 21.998 51.7881 24.9127 52.4917 28.2295C53.1282 31.3117 53.4465 33.4056 53.4465 34.5112V35.2147C53.4465 35.6168 53.48 35.868 53.547 35.9685C53.6475 36.0691 53.8653 36.1193 54.2003 36.1193C58.4551 35.9853 61.8891 34.4777 64.5023 31.5965C64.9713 31.1274 65.3734 30.8929 65.7084 30.8929C66.2779 30.8929 66.5627 31.2112 66.5627 31.8477C66.5627 32.7523 65.5911 33.9919 63.648 35.5665C61.5038 37.2751 58.5054 38.3472 54.6526 38.7828C53.882 38.8498 53.4465 38.967 53.346 39.1345C53.279 39.302 53.2455 39.5366 53.2455 39.8381C52.4749 45.299 50.6155 49.135 47.6673 51.3462C45.4226 52.9878 42.6084 53.8086 39.2247 53.8086ZM70.181 58.3817C69.3769 58.3817 68.8576 58.3482 68.6231 58.2812C68.4221 58.2142 68.2378 58.1807 68.0703 58.1807L67.417 58.2812C66.747 58.2812 66.2277 57.9797 65.8592 57.3767C65.1556 56.3046 64.6196 53.8254 64.251 49.9391C63.8825 46.4213 63.6982 42.2335 63.6982 37.3757C63.6982 27.8944 64.2343 21.5625 65.3064 18.3797C65.6079 17.8102 66.1607 17.5254 66.9647 17.5254C68.6399 17.5254 69.7119 18.4132 70.181 20.1889C70.449 21.4285 70.6668 23.1538 70.8343 25.365C71.0353 27.5762 71.1358 29.3183 71.1358 30.5914C71.1358 30.8929 71.2363 31.1442 71.4373 31.3452L71.7388 30.4406C73.213 25.4823 74.9216 22.333 76.8647 20.9929C77.3338 20.6579 77.8196 20.4904 78.3221 20.4904C79.2602 20.4904 80.3155 21.0264 81.4881 22.0985C82.9957 23.7066 84.5201 26.2193 86.0612 29.6366C87.8368 33.9584 89.6459 36.1193 91.4886 36.1193C91.7901 36.1193 92.1251 36.0691 92.4937 35.9685C95.0398 34.997 97.318 33.7574 99.3282 32.2498C101.003 31.0437 102.176 30.4239 102.846 30.3904C103.382 30.4909 103.65 30.7254 103.65 31.0939C103.65 32.0655 102.276 33.7741 99.5292 36.2198C97.586 37.9619 95.7099 38.9503 93.9008 39.1848C92.9292 39.3188 91.9074 39.3858 90.8353 39.3858L89.2272 39.3356C87.418 39.168 85.9104 38.4812 84.7043 37.2751C83.5317 36.0691 82.5769 34.6452 81.8399 33.0036C81.1028 31.3285 80.4998 29.7538 80.0307 28.2797C79.4612 26.4706 78.9419 25.298 78.4729 24.762C76.4627 26.0686 74.9048 31.5965 73.7993 41.3457C73.2632 45.8685 72.8109 51.2122 72.4424 57.3767C72.3419 58.0467 71.5881 58.3817 70.181 58.3817ZM109.881 29.9884C109.982 29.9884 110.099 29.9548 110.233 29.8878C112.277 28.8828 113.667 27.7437 114.404 26.4706C114.94 25.566 115.208 24.8122 115.208 24.2092C115.208 23.5056 114.974 23.1538 114.505 23.1538C114.203 23.1538 113.667 23.4554 112.897 24.0584C112.16 24.6279 111.088 26.4203 109.68 29.4356L109.63 29.7371C109.63 29.9046 109.714 29.9884 109.881 29.9884ZM111.741 54.0097C111.037 54.0097 110.334 53.9594 109.63 53.8589C109.429 53.8254 109.211 53.8086 108.977 53.8086H108.575C107.034 53.8086 105.593 53.3564 104.253 52.4518C100.702 49.6711 98.9261 45.7513 98.9261 40.6924C98.9261 37.6437 99.6129 34.3939 100.987 30.9432C102.394 27.4924 104.488 24.6112 107.268 22.2995C109.345 20.5909 111.557 19.7366 113.902 19.7366C114.672 19.7366 115.443 19.8203 116.213 19.9879C118.157 20.6579 119.128 21.9477 119.128 23.8574C119.128 23.9914 119.078 24.6447 118.977 25.8173C118.91 26.9564 118.006 28.464 116.264 30.3401C114.689 32.0488 112.712 32.9031 110.334 32.9031L109.027 32.8026C108.826 32.8026 108.659 32.8528 108.525 32.9533C108.391 33.0203 108.273 33.2883 108.173 33.7574C107.67 35.935 107.419 38.1797 107.419 40.4914C107.419 40.7594 107.436 41.6137 107.469 43.0543C107.503 44.4949 107.905 46.0193 108.675 47.6274C109.278 48.867 110.099 49.4868 111.138 49.4868C111.473 49.4868 111.825 49.4198 112.193 49.2858C115.644 47.8452 118.81 45.768 121.691 43.0543C124.572 40.3071 127.051 37.6939 129.129 35.2147C130.368 33.7741 131.44 32.6015 132.345 31.697C133.249 30.7924 133.953 30.3401 134.456 30.3401C135.327 30.4071 135.762 30.7757 135.762 31.4457C135.762 31.6467 135.695 31.8812 135.561 32.1493C130.737 41.1614 125.577 47.5437 120.083 51.2959C117.47 53.1051 114.689 54.0097 111.741 54.0097ZM154.055 25.8173C154.122 25.0802 154.155 24.3599 154.155 23.6564C154.155 20.8087 153.636 18.0447 152.597 15.3645C152.463 16.1686 152.396 16.9559 152.396 17.7264C152.396 20.0381 152.949 22.7351 154.055 25.8173ZM141.391 56.9244C141.056 56.9244 140.704 56.9076 140.335 56.8741C140 56.8406 139.699 56.8239 139.431 56.8239C134.07 56.6899 131.39 51.1787 131.39 40.2904C131.39 37.3086 131.608 34.1092 132.043 30.6919C132.512 27.2746 133.099 24.2594 133.802 21.6462C134.539 18.9995 135.176 17.6427 135.712 17.5757L136.466 17.5254C137.404 17.5254 138.074 17.6762 138.476 17.9777C138.71 18.2457 138.828 19.3178 138.828 21.1939C138.828 23.0701 138.777 25.4153 138.677 28.2295C138.576 31.3787 138.526 34.5614 138.526 37.7777V42.7026C138.526 45.1482 138.828 47.6274 139.431 50.1401C139.866 51.9827 140.57 52.9041 141.541 52.9041C141.91 52.9041 142.295 52.7868 142.697 52.5523C145.277 50.7767 147.488 48.0965 149.331 44.5117C151.207 40.9269 152.53 37.4092 153.301 33.9584L153.351 33.6066C153.351 33.2046 153.049 32.8026 152.446 32.4005C151.207 31.5965 150.151 30.1224 149.28 27.9782C148.108 24.695 147.522 21.8305 147.522 19.3848C147.522 18.1452 147.806 16.5203 148.376 14.5102C149.012 12.299 150.319 11.0929 152.296 10.8919C153.77 10.8919 154.892 12.299 155.663 15.1132C156.132 17.3579 156.383 19.3848 156.416 21.1939C156.416 23.0031 156.349 24.5609 156.215 25.8675C156.148 26.5376 156.115 27.1406 156.115 27.6767C156.115 28.6818 156.232 29.5696 156.467 30.3401C156.735 31.1107 157.69 31.496 159.331 31.496C160.638 31.496 162.045 31.4122 163.552 31.2447C164.826 31.1107 165.814 31.0437 166.517 31.0437C167.456 31.0437 167.925 31.1944 167.925 31.496C167.925 31.965 166.953 32.4675 165.01 33.0036C162.698 33.7071 160.47 34.0589 158.326 34.0589C157.757 34.0589 157.187 34.0254 156.617 33.9584C156.215 33.9584 155.914 34.2767 155.713 34.9132C155.512 35.5498 155.311 36.4711 155.11 37.6772C154.306 43.4061 152.312 48.6157 149.13 53.3061C147.756 55.1152 146.265 56.1873 144.657 56.5223C143.451 56.7904 142.362 56.9244 141.391 56.9244ZM174.005 29.9884C174.106 29.9884 174.223 29.9548 174.357 29.8878C176.401 28.8828 177.791 27.7437 178.528 26.4706C179.064 25.566 179.332 24.8122 179.332 24.2092C179.332 23.5056 179.098 23.1538 178.629 23.1538C178.327 23.1538 177.791 23.4554 177.02 24.0584C176.283 24.6279 175.211 26.4203 173.804 29.4356L173.754 29.7371C173.754 29.9046 173.838 29.9884 174.005 29.9884ZM175.865 54.0097C175.161 54.0097 174.458 53.9594 173.754 53.8589C173.553 53.8254 173.335 53.8086 173.101 53.8086H172.699C171.158 53.8086 169.717 53.3564 168.377 52.4518C164.826 49.6711 163.05 45.7513 163.05 40.6924C163.05 37.6437 163.737 34.3939 165.11 30.9432C166.517 27.4924 168.611 24.6112 171.392 22.2995C173.469 20.5909 175.68 19.7366 178.026 19.7366C178.796 19.7366 179.567 19.8203 180.337 19.9879C182.28 20.6579 183.252 21.9477 183.252 23.8574C183.252 23.9914 183.202 24.6447 183.101 25.8173C183.034 26.9564 182.13 28.464 180.387 30.3401C178.813 32.0488 176.836 32.9031 174.458 32.9031L173.151 32.8026C172.95 32.8026 172.782 32.8528 172.648 32.9533C172.514 33.0203 172.397 33.2883 172.297 33.7574C171.794 35.935 171.543 38.1797 171.543 40.4914C171.543 40.7594 171.56 41.6137 171.593 43.0543C171.627 44.4949 172.029 46.0193 172.799 47.6274C173.402 48.867 174.223 49.4868 175.262 49.4868C175.597 49.4868 175.948 49.4198 176.317 49.2858C179.768 47.8452 182.934 45.768 185.815 43.0543C188.696 40.3071 191.175 37.6939 193.252 35.2147C194.492 33.7741 195.564 32.6015 196.469 31.697C197.373 30.7924 198.077 30.3401 198.579 30.3401C199.45 30.4071 199.886 30.7757 199.886 31.4457C199.886 31.6467 199.819 31.8812 199.685 32.1493C194.861 41.1614 189.701 47.5437 184.207 51.2959C181.594 53.1051 178.813 54.0097 175.865 54.0097ZM202.549 58.3817C201.745 58.3817 201.226 58.3482 200.992 58.2812C200.791 58.2142 200.606 58.1807 200.439 58.1807L199.785 58.2812C199.115 58.2812 198.596 57.9797 198.228 57.3767C197.524 56.3046 196.988 53.8254 196.619 49.9391C196.251 46.4213 196.067 42.2335 196.067 37.3757C196.067 27.8944 196.603 21.5625 197.675 18.3797C197.976 17.8102 198.529 17.5254 199.333 17.5254C201.008 17.5254 202.08 18.4132 202.549 20.1889C202.817 21.4285 203.035 23.1538 203.203 25.365C203.404 27.5762 203.504 29.3183 203.504 30.5914C203.504 30.8929 203.605 31.1442 203.806 31.3452L204.107 30.4406C205.581 25.4823 207.29 22.333 209.233 20.9929C209.702 20.6579 210.188 20.4904 210.691 20.4904C211.629 20.4904 212.684 21.0264 213.857 22.0985C215.364 23.7066 216.888 26.2193 218.43 29.6366C220.205 33.9584 222.014 36.1193 223.857 36.1193C224.159 36.1193 224.494 36.0691 224.862 35.9685C227.408 34.997 229.686 33.7574 231.697 32.2498C233.372 31.0437 234.544 30.4239 235.214 30.3904C235.75 30.4909 236.018 30.7254 236.018 31.0939C236.018 32.0655 234.645 33.7741 231.898 36.2198C229.954 37.9619 228.078 38.9503 226.269 39.1848C225.298 39.3188 224.276 39.3858 223.204 39.3858L221.596 39.3356C219.786 39.168 218.279 38.4812 217.073 37.2751C215.9 36.0691 214.945 34.6452 214.208 33.0036C213.471 31.3285 212.868 29.7538 212.399 28.2797C211.83 26.4706 211.31 25.298 210.841 24.762C208.831 26.0686 207.273 31.5965 206.168 41.3457C205.632 45.8685 205.179 51.2122 204.811 57.3767C204.71 58.0467 203.957 58.3817 202.549 58.3817ZM285.468 18.2792C287.244 15.7665 288.601 13.0361 289.539 10.0879C287.462 12.4665 286.105 15.197 285.468 18.2792ZM278.684 49.0848C279.052 49.0848 279.655 48.9173 280.493 48.5822C281.364 48.2137 282.52 47.5269 283.96 46.5218C285.435 45.4833 286.674 44.4614 287.679 43.4564C288.45 42.6858 288.835 42.0828 288.835 41.6472C288.835 41.2787 287.26 39.5533 284.111 36.4711C282.771 35.0975 282.017 34.4107 281.85 34.4107C281.615 34.6452 281.13 35.5665 280.392 37.1746C278.684 40.9604 277.83 44.2437 277.83 47.0244C277.83 47.5604 277.863 48.0797 277.93 48.5822C278.031 48.9173 278.282 49.0848 278.684 49.0848ZM294.313 60.1909C293.978 60.1909 293.693 60.1239 293.458 59.9898C293.257 59.8223 293.157 59.6381 293.157 59.4371C293.157 59.303 293.224 59.1523 293.358 58.9848C294.061 58.0802 294.413 56.8741 294.413 55.3665C294.413 53.8589 294.229 52.3848 293.86 50.9442C293.492 49.4701 293.107 48.3645 292.705 47.6274C292.437 47.6274 291.934 47.9457 291.197 48.5822C290.058 49.7213 288.232 50.8939 285.719 52.1C283.877 52.9711 281.565 53.4066 278.784 53.4066C277.712 53.4066 276.556 53.3396 275.317 53.2056C273.005 52.7366 271.849 51.2289 271.849 48.6828C271.849 48.6157 271.849 47.9122 271.849 46.5721C271.883 45.1985 272.57 42.8533 273.91 39.5366C275.25 36.2198 276.657 33.3386 278.131 30.8929C278.299 30.6584 278.382 30.4406 278.382 30.2396C278.382 30.0051 278.198 29.6366 277.83 29.134C277.495 28.598 277.076 27.5594 276.573 26.0183C276.272 24.8792 276.121 23.6899 276.121 22.4503C276.121 20.5071 276.59 18.1285 277.528 15.3142C278.5 12.4665 280.258 9.87009 282.805 7.52492C284.815 5.68228 287.093 4.76096 289.639 4.76096C292.822 4.76096 294.413 5.88329 294.413 8.12796C294.413 10.3391 292.889 13.9574 289.84 18.9828C287.361 23.2041 286.121 25.9848 286.121 27.3249C286.121 28.397 287.931 31.3452 291.549 36.1696L292.956 38.1295C299.723 30.4239 304.213 24.762 306.424 21.1437C307.161 20.0716 307.647 19.5356 307.881 19.5356C307.982 19.5356 308.133 19.5858 308.334 19.6863H308.585C310.427 19.6863 311.349 20.4569 311.349 21.998C311.282 25.2142 308.334 30.2731 302.504 37.1746C300.326 39.7543 298.517 41.7477 297.077 43.1548C296.641 43.5904 296.423 44.0259 296.423 44.4614C296.423 44.9975 296.557 45.634 296.825 46.3711C297.563 48.3812 297.931 50.9442 297.931 54.0599C297.864 56.0031 297.546 57.4269 296.976 58.3315C296.239 59.5711 295.351 60.1909 294.313 60.1909ZM359.341 29.9884C359.442 29.9884 359.559 29.9548 359.693 29.8878C361.737 28.8828 363.127 27.7437 363.864 26.4706C364.4 25.566 364.668 24.8122 364.668 24.2092C364.668 23.5056 364.434 23.1538 363.964 23.1538C363.663 23.1538 363.127 23.4554 362.356 24.0584C361.619 24.6279 360.547 26.4203 359.14 29.4356L359.09 29.7371C359.09 29.9046 359.174 29.9884 359.341 29.9884ZM361.201 54.0097C360.497 54.0097 359.793 53.9594 359.09 53.8589C358.889 53.8254 358.671 53.8086 358.437 53.8086H358.035C356.493 53.8086 355.053 53.3564 353.713 52.4518C350.161 49.6711 348.386 45.7513 348.386 40.6924C348.386 37.6437 349.073 34.3939 350.446 30.9432C351.853 27.4924 353.947 24.6112 356.728 22.2995C358.805 20.5909 361.016 19.7366 363.361 19.7366C364.132 19.7366 364.903 19.8203 365.673 19.9879C367.616 20.6579 368.588 21.9477 368.588 23.8574C368.588 23.9914 368.538 24.6447 368.437 25.8173C368.37 26.9564 367.466 28.464 365.723 30.3401C364.149 32.0488 362.172 32.9031 359.793 32.9031L358.487 32.8026C358.286 32.8026 358.118 32.8528 357.984 32.9533C357.85 33.0203 357.733 33.2883 357.633 33.7574C357.13 35.935 356.879 38.1797 356.879 40.4914C356.879 40.7594 356.895 41.6137 356.929 43.0543C356.962 44.4949 357.365 46.0193 358.135 47.6274C358.738 48.867 359.559 49.4868 360.597 49.4868C360.933 49.4868 361.284 49.4198 361.653 49.2858C365.104 47.8452 368.27 45.768 371.151 43.0543C374.032 40.3071 376.511 37.6939 378.588 35.2147C379.828 33.7741 380.9 32.6015 381.805 31.697C382.709 30.7924 383.413 30.3401 383.915 30.3401C384.786 30.4071 385.222 30.7757 385.222 31.4457C385.222 31.6467 385.155 31.8812 385.021 32.1493C380.196 41.1614 375.037 47.5437 369.543 51.2959C366.929 53.1051 364.149 54.0097 361.201 54.0097ZM403.514 25.8173C403.581 25.0802 403.615 24.3599 403.615 23.6564C403.615 20.8087 403.095 18.0447 402.057 15.3645C401.923 16.1686 401.856 16.9559 401.856 17.7264C401.856 20.0381 402.409 22.7351 403.514 25.8173ZM390.85 56.9244C390.515 56.9244 390.163 56.9076 389.795 56.8741C389.46 56.8406 389.158 56.8239 388.89 56.8239C383.53 56.6899 380.85 51.1787 380.85 40.2904C380.85 37.3086 381.068 34.1092 381.503 30.6919C381.972 27.2746 382.558 24.2594 383.262 21.6462C383.999 18.9995 384.636 17.6427 385.172 17.5757L385.925 17.5254C386.863 17.5254 387.534 17.6762 387.936 17.9777C388.17 18.2457 388.287 19.3178 388.287 21.1939C388.287 23.0701 388.237 25.4153 388.137 28.2295C388.036 31.3787 387.986 34.5614 387.986 37.7777V42.7026C387.986 45.1482 388.287 47.6274 388.89 50.1401C389.326 51.9827 390.029 52.9041 391.001 52.9041C391.37 52.9041 391.755 52.7868 392.157 52.5523C394.737 50.7767 396.948 48.0965 398.79 44.5117C400.666 40.9269 401.99 37.4092 402.76 33.9584L402.811 33.6066C402.811 33.2046 402.509 32.8026 401.906 32.4005C400.666 31.5965 399.611 30.1224 398.74 27.9782C397.568 24.695 396.981 21.8305 396.981 19.3848C396.981 18.1452 397.266 16.5203 397.836 14.5102C398.472 12.299 399.779 11.0929 401.755 10.8919C403.229 10.8919 404.352 12.299 405.122 15.1132C405.591 17.3579 405.843 19.3848 405.876 21.1939C405.876 23.0031 405.809 24.5609 405.675 25.8675C405.608 26.5376 405.575 27.1406 405.575 27.6767C405.575 28.6818 405.692 29.5696 405.926 30.3401C406.194 31.1107 407.149 31.496 408.791 31.496C410.097 31.496 411.505 31.4122 413.012 31.2447C414.285 31.1107 415.274 31.0437 415.977 31.0437C416.915 31.0437 417.384 31.1944 417.384 31.496C417.384 31.965 416.413 32.4675 414.47 33.0036C412.158 33.7071 409.93 34.0589 407.786 34.0589C407.216 34.0589 406.647 34.0254 406.077 33.9584C405.675 33.9584 405.374 34.2767 405.173 34.9132C404.972 35.5498 404.771 36.4711 404.57 37.6772C403.765 43.4061 401.772 48.6157 398.589 53.3061C397.216 55.1152 395.725 56.1873 394.117 56.5223C392.911 56.7904 391.822 56.9244 390.85 56.9244ZM423.465 29.9884C423.565 29.9884 423.683 29.9548 423.817 29.8878C425.86 28.8828 427.251 27.7437 427.988 26.4706C428.524 25.566 428.792 24.8122 428.792 24.2092C428.792 23.5056 428.557 23.1538 428.088 23.1538C427.787 23.1538 427.251 23.4554 426.48 24.0584C425.743 24.6279 424.671 26.4203 423.264 29.4356L423.214 29.7371C423.214 29.9046 423.297 29.9884 423.465 29.9884ZM425.324 54.0097C424.621 54.0097 423.917 53.9594 423.214 53.8589C423.013 53.8254 422.795 53.8086 422.56 53.8086H422.158C420.617 53.8086 419.177 53.3564 417.837 52.4518C414.285 49.6711 412.51 45.7513 412.51 40.6924C412.51 37.6437 413.196 34.3939 414.57 30.9432C415.977 27.4924 418.071 24.6112 420.852 22.2995C422.929 20.5909 425.14 19.7366 427.485 19.7366C428.256 19.7366 429.026 19.8203 429.797 19.9879C431.74 20.6579 432.712 21.9477 432.712 23.8574C432.712 23.9914 432.661 24.6447 432.561 25.8173C432.494 26.9564 431.589 28.464 429.847 30.3401C428.273 32.0488 426.296 32.9031 423.917 32.9031L422.611 32.8026C422.41 32.8026 422.242 32.8528 422.108 32.9533C421.974 33.0203 421.857 33.2883 421.756 33.7574C421.254 35.935 421.003 38.1797 421.003 40.4914C421.003 40.7594 421.019 41.6137 421.053 43.0543C421.086 44.4949 421.488 46.0193 422.259 47.6274C422.862 48.867 423.683 49.4868 424.721 49.4868C425.056 49.4868 425.408 49.4198 425.777 49.2858C429.227 47.8452 432.393 45.768 435.275 43.0543C438.156 40.3071 440.635 37.6939 442.712 35.2147C443.952 33.7741 445.024 32.6015 445.928 31.697C446.833 30.7924 447.537 30.3401 448.039 30.3401C448.91 30.4071 449.346 30.7757 449.346 31.4457C449.346 31.6467 449.279 31.8812 449.145 32.1493C444.32 41.1614 439.161 47.5437 433.666 51.2959C431.053 53.1051 428.273 54.0097 425.324 54.0097ZM452.009 58.3817C451.205 58.3817 450.686 58.3482 450.451 58.2812C450.25 58.2142 450.066 58.1807 449.898 58.1807L449.245 58.2812C448.575 58.2812 448.056 57.9797 447.687 57.3767C446.984 56.3046 446.448 53.8254 446.079 49.9391C445.711 46.4213 445.526 42.2335 445.526 37.3757C445.526 27.8944 446.062 21.5625 447.134 18.3797C447.436 17.8102 447.989 17.5254 448.793 17.5254C450.468 17.5254 451.54 18.4132 452.009 20.1889C452.277 21.4285 452.495 23.1538 452.662 25.365C452.863 27.5762 452.964 29.3183 452.964 30.5914C452.964 30.8929 453.064 31.1442 453.265 31.3452L453.567 30.4406C455.041 25.4823 456.75 22.333 458.693 20.9929C459.162 20.6579 459.648 20.4904 460.15 20.4904C461.088 20.4904 462.144 21.0264 463.316 22.0985C464.824 23.7066 466.348 26.2193 467.889 29.6366C469.665 33.9584 471.474 36.1193 473.317 36.1193C473.618 36.1193 473.953 36.0691 474.322 35.9685C476.868 34.997 479.146 33.7574 481.156 32.2498C482.831 31.0437 484.004 30.4239 484.674 30.3904C485.21 30.4909 485.478 30.7254 485.478 31.0939C485.478 32.0655 484.104 33.7741 481.357 36.2198C479.414 37.9619 477.538 38.9503 475.729 39.1848C474.757 39.3188 473.735 39.3858 472.663 39.3858L471.055 39.3356C469.246 39.168 467.739 38.4812 466.532 37.2751C465.36 36.0691 464.405 34.6452 463.668 33.0036C462.931 31.3285 462.328 29.7538 461.859 28.2797C461.289 26.4706 460.77 25.298 460.301 24.762C458.291 26.0686 456.733 31.5965 455.627 41.3457C455.091 45.8685 454.639 51.2122 454.271 57.3767C454.17 58.0467 453.416 58.3817 452.009 58.3817ZM494.423 43.2051C493.318 43.2051 492.53 43.0878 492.061 42.8533C491.123 42.3508 490.654 39.8548 490.654 35.3655C490.654 31.3117 490.822 25.9178 491.157 19.1838C491.626 10.3056 492.262 5.86654 493.066 5.86654C493.167 5.86654 493.251 5.90004 493.318 5.96705C493.519 6.16806 493.72 6.26857 493.921 6.26857C494.289 6.26857 494.658 6.21832 495.026 6.11781C497.64 6.25182 498.946 9.41781 498.946 15.6158C498.946 19.5356 498.477 24.1924 497.539 29.5863C496.802 34.1762 496.383 37.4594 496.283 39.4361C496.182 41.0777 496.015 42.1163 495.78 42.5518C495.546 42.9873 495.093 43.2051 494.423 43.2051ZM494.574 55.3665C494.34 55.3665 494.055 55.3498 493.72 55.3162C493.418 55.2827 493.016 55.266 492.514 55.266H491.71C491.04 55.2325 490.705 54.6294 490.705 53.4569C490.705 52.3848 490.956 51.43 491.458 50.5924C491.693 50.2239 491.944 50.0396 492.212 50.0396C492.313 50.0396 492.396 50.0564 492.463 50.0899C492.564 50.1234 492.681 50.1401 492.815 50.1401H493.468C494.005 50.1401 494.574 50.3579 495.177 50.7934C495.78 51.1954 496.299 51.698 496.735 52.301C497.036 52.7366 497.187 53.1051 497.187 53.4066C497.187 53.5071 497.17 53.5909 497.137 53.6579C496.601 54.5289 496.098 55.0482 495.629 55.2157C495.328 55.3162 494.976 55.3665 494.574 55.3665Z" fill="#BB8180"/>
</svg>
