<svg width="24" height="23" viewBox="0 0 24 23" fill="none" xmlns="http://www.w3.org/2000/svg">
<path d="M12.0746 15.339C13.9903 15.339 15.5432 13.786 15.5432 11.8704C15.5432 9.95471 13.9903 8.40176 12.0746 8.40176C10.159 8.40176 8.60602 9.95471 8.60602 11.8704C8.60602 13.786 10.159 15.339 12.0746 15.339Z" stroke="#BB8180" stroke-width="1.38744" stroke-miterlimit="10"/>
<path d="M15.8901 3.89258H8.25916C5.96037 3.89258 4.09683 5.75612 4.09683 8.05491V15.6858C4.09683 17.9846 5.96037 19.8482 8.25916 19.8482H15.8901C18.1889 19.8482 20.0524 17.9846 20.0524 15.6858V8.05491C20.0524 5.75612 18.1889 3.89258 15.8901 3.89258Z" stroke="#BB8180" stroke-width="1.38744" stroke-linecap="round" stroke-linejoin="round"/>
<path d="M16.5838 8.40178C17.1585 8.40178 17.6244 7.9359 17.6244 7.3612C17.6244 6.7865 17.1585 6.32062 16.5838 6.32062C16.0091 6.32062 15.5432 6.7865 15.5432 7.3612C15.5432 7.9359 16.0091 8.40178 16.5838 8.40178Z" fill="#BB8180"/>
</svg>
