<svg width="19" height="20" viewBox="0 0 19 20" fill="none" xmlns="http://www.w3.org/2000/svg">
<path d="M11.7592 3.43802C12.7595 3.70706 13.6716 4.23423 14.4041 4.96674C15.1366 5.69924 15.6638 6.61135 15.9329 7.61172" stroke="#BB8180" stroke-width="1.2875" stroke-linecap="round" stroke-linejoin="round"/>
<path d="M11.1481 5.71857C11.7483 5.87999 12.2956 6.1963 12.7351 6.6358C13.1746 7.0753 13.4909 7.62257 13.6523 8.22279" stroke="#BB8180" stroke-width="1.2875" stroke-linecap="round" stroke-linejoin="round"/>
<path d="M6.82137 9.69426C7.43348 10.9457 8.44787 11.9555 9.70206 12.5619C9.79383 12.6053 9.89533 12.6242 9.99659 12.6165C10.0978 12.6089 10.1954 12.575 10.2795 12.5182L12.1262 11.2867C12.2079 11.2323 12.3019 11.1991 12.3996 11.1901C12.4974 11.1811 12.5958 11.1966 12.6861 11.2353L16.1409 12.716C16.2583 12.7658 16.3563 12.8525 16.4201 12.9628C16.4839 13.0732 16.5102 13.2014 16.4949 13.328C16.3857 14.1824 15.9687 14.9678 15.3222 15.537C14.6756 16.1062 13.8438 16.4203 12.9823 16.4203C10.3217 16.4203 7.77012 15.3634 5.8888 13.4821C4.00748 11.6008 2.95056 9.04914 2.95056 6.38855C2.95061 5.52712 3.26464 4.69525 3.83386 4.04869C4.40308 3.40213 5.18845 2.98522 6.04293 2.87603C6.16952 2.86071 6.29765 2.88694 6.40804 2.95078C6.51842 3.01462 6.60506 3.1126 6.65492 3.22996L8.13685 6.68781C8.17518 6.77725 8.1908 6.87478 8.18232 6.97172C8.17383 7.06866 8.14151 7.16199 8.08822 7.24341L6.86107 9.11845C6.80522 9.2028 6.7722 9.30019 6.76524 9.40111C6.75828 9.50204 6.77762 9.60304 6.82137 9.69426V9.69426Z" stroke="#BB8180" stroke-width="1.2875" stroke-linecap="round" stroke-linejoin="round"/>
</svg>
