<svg width="119" height="58" viewBox="0 0 119 58" fill="none" xmlns="http://www.w3.org/2000/svg">
<path d="M17.3984 54.4141C17.7031 54.4141 18.0781 54.332 18.5234 54.168C20.5859 53.3008 22.543 51.9414 24.3945 50.0898C26.2695 48.2383 27.6875 46.2227 28.6484 44.043C28.9297 43.2695 29.0703 42.5078 29.0703 41.7578C29.0703 40.8438 28.8477 39.9531 28.4023 39.0859C28.0742 38.4766 27.8516 38.1719 27.7344 38.1719C27.6406 38.1719 27.3828 38.3828 26.9609 38.8047C24.4297 41.125 22.2148 43.5859 20.3164 46.1875C17.7852 49.6328 16.5195 52.082 16.5195 53.5352C16.5195 54.1211 16.8125 54.4141 17.3984 54.4141ZM16.0625 57.6133C15.4297 57.6133 14.7734 57.5781 14.0938 57.5078C12.2891 57.25 11.3867 56.043 11.3867 53.8867C11.3867 51.8008 12.4062 49.1992 14.4453 46.082C16.4844 42.9648 19.6953 39.6953 24.0781 36.2734C24.4062 36.0625 24.6641 35.8281 24.8516 35.5703C23.2109 34.6094 21.3828 33.8711 19.3672 33.3555C17.375 32.8398 15.3477 32.3945 13.2852 32.0195C10.9414 31.6211 8.79688 31.1289 6.85156 30.543C2.9375 29.3945 0.980469 27.2969 0.980469 24.25C0.980469 23.875 1.00391 23.4883 1.05078 23.0898C1.49609 20.1836 2.78516 17.2891 4.91797 14.4062C7.07422 11.5234 9.69922 8.94531 12.793 6.67188C15.9102 4.39844 19.1445 2.72266 22.4961 1.64453C24.4414 1.03516 26.3047 0.730469 28.0859 0.730469C29.3516 0.730469 30.582 0.882812 31.7773 1.1875C33.3711 1.65625 34.6953 2.64062 35.75 4.14062C36.4062 5.10156 36.7344 6.25 36.7344 7.58594C36.7344 8.3125 36.6406 9.08594 36.4531 9.90625C35.5859 12.8594 34.8125 14.3359 34.1328 14.3359C33.3828 14.3359 33.0078 14.1602 33.0078 13.8086C33.0078 13.5742 33.1016 13.2461 33.2891 12.8242C33.7344 12.0039 34.0391 10.6562 34.2031 8.78125C34.2031 6.10938 33.0078 4.30469 30.6172 3.36719C30.1719 3.22656 29.6914 3.15625 29.1758 3.15625C27.8867 3.15625 26.2227 3.68359 24.1836 4.73828C22.1445 5.79297 19.8945 7.43359 17.4336 9.66016C14.9961 11.8633 12.8633 14.1953 11.0352 16.6562C9.20703 19.1172 8.04688 21.3203 7.55469 23.2656C7.4375 23.7578 7.37891 24.2148 7.37891 24.6367C7.37891 25.8789 7.95312 26.7695 9.10156 27.3086C10.9766 28.0586 12.8984 28.6797 14.8672 29.1719C21.2188 30.9531 25.2031 32.3945 26.8203 33.4961C27.1719 33.707 27.3945 33.8125 27.4883 33.8125C27.6055 33.8125 27.8164 33.6953 28.1211 33.4609C29.4102 32.2891 32.5391 30.707 37.5078 28.7148C40.8359 27.4023 43.2148 26.7461 44.6445 26.7461C45.207 26.7461 45.6523 26.8516 45.9805 27.0625C46.3086 27.2734 46.4727 27.4141 46.4727 27.4844C46.4727 27.5547 46.3086 27.6133 45.9805 27.6602C45.3008 27.707 43.7305 28.2461 41.2695 29.2773C38.832 30.3086 35.2461 32.5 30.5117 35.8516C30.3945 35.9219 30.3359 36.0156 30.3359 36.1328C30.3359 36.3203 30.5703 36.7422 31.0391 37.3984C31.7188 38.1719 32.3164 39.2852 32.832 40.7383C33.0195 41.2539 33.1133 41.8398 33.1133 42.4961C33.1133 43.6211 32.832 44.9219 32.2695 46.3984C30.8633 49.75 28.6016 52.5391 25.4844 54.7656C22.8125 56.6641 19.6719 57.6133 16.0625 57.6133ZM49.8477 39.0508C50.2695 39.0508 51.2891 38.0898 52.9062 36.168C54.125 34.6914 55.2617 32.9102 56.3164 30.8242C57.4414 28.5742 58.0039 26.3945 58.0039 24.2852C58.0039 22.2461 57.1836 20.3945 55.543 18.7305C55.3555 18.543 55.2148 18.4492 55.1211 18.4492C55.0039 18.4492 54.8516 18.543 54.6641 18.7305C53.8438 19.5273 53.1641 20.418 52.625 21.4023C51.1484 24.2617 50.1406 27.0977 49.6016 29.9102C49.1562 32.0898 48.9336 33.9531 48.9336 35.5C48.9336 37.8672 49.2383 39.0508 49.8477 39.0508ZM50.0586 42.6719C49.4492 42.6719 48.8047 42.5664 48.125 42.3555C48.0547 42.332 47.9375 42.3203 47.7734 42.3203C47.6562 42.3438 47.5156 42.3555 47.3516 42.3555C47.1875 42.3555 46.9414 42.3438 46.6133 42.3203C46.3086 42.2734 45.9102 42.0859 45.418 41.7578C44.9492 41.4297 44.4805 40.8672 44.0117 40.0703C43.1914 38.5469 42.7812 36.707 42.7812 34.5508C42.7812 34.2227 42.8164 33.332 42.8867 31.8789C42.957 30.4258 43.4609 28.3867 44.3984 25.7617C45.3359 23.1133 46.543 20.8047 48.0195 18.8359C49.5195 16.8672 51.1602 15.6133 52.9414 15.0742C53.3867 14.9336 53.832 14.8633 54.2773 14.8633C55.5898 14.8633 56.9258 15.4727 58.2852 16.6914C60.2305 18.4258 61.2031 20.8633 61.2031 24.0039V24.4961C61.2031 24.8711 61.3203 25.1758 61.5547 25.4102C62.0234 25.9023 62.3164 26.6055 62.4336 27.5195C62.5742 28.4102 62.6562 29.4648 62.6797 30.6836C62.7031 32.3945 62.8906 34.2109 63.2422 36.1328C63.3125 36.4141 63.4062 36.6016 63.5234 36.6953C64.8359 36.2031 66.0195 35.207 67.0742 33.707C68.1523 32.207 69.0898 30.6953 69.8867 29.1719C71.1055 26.8984 71.9609 25.7383 72.4531 25.6914C72.7812 25.7383 72.9453 25.8789 72.9453 26.1133L72.9102 26.3242C72.6289 27.0273 72.3594 27.7656 72.1016 28.5391C71.4922 30.3906 70.8008 32.1719 70.0273 33.8828C68.3398 37.5156 66.1367 39.332 63.418 39.332C63.1602 39.332 62.9023 39.3203 62.6445 39.2969C62.4102 39.2734 62.1641 39.2617 61.9062 39.2617C61.4141 39.2617 60.9336 39.1797 60.4648 39.0156C60.0195 38.8281 59.5977 38.3594 59.1992 37.6094C58.8242 36.8359 58.5195 35.5938 58.2852 33.8828C58.0977 34 57.8047 34.4922 57.4062 35.3594C56.0234 38.5703 54.3945 40.7734 52.5195 41.9688C51.793 42.4375 50.9727 42.6719 50.0586 42.6719ZM86.0234 23.6875C86.0703 23.1719 86.0938 22.668 86.0938 22.1758C86.0938 20.1836 85.7305 18.25 85.0039 16.375C84.9102 16.9375 84.8633 17.4883 84.8633 18.0273C84.8633 19.6445 85.25 21.5312 86.0234 23.6875ZM77.1641 45.4492C76.9297 45.4492 76.6836 45.4375 76.4258 45.4141C76.1914 45.3906 75.9805 45.3789 75.793 45.3789C72.043 45.2852 70.168 41.4297 70.168 33.8125C70.168 31.7266 70.3203 29.4883 70.625 27.0977C70.9531 24.707 71.3633 22.5977 71.8555 20.7695C72.3711 18.918 72.8164 17.9688 73.1914 17.9219L73.7188 17.8867C74.375 17.8867 74.8438 17.9922 75.125 18.2031C75.2891 18.3906 75.3711 19.1406 75.3711 20.4531C75.3711 21.7656 75.3359 23.4062 75.2656 25.375C75.1953 27.5781 75.1602 29.8047 75.1602 32.0547V35.5C75.1602 37.2109 75.3711 38.9453 75.793 40.7031C76.0977 41.9922 76.5898 42.6367 77.2695 42.6367C77.5273 42.6367 77.7969 42.5547 78.0781 42.3906C79.8828 41.1484 81.4297 39.2734 82.7188 36.7656C84.0312 34.2578 84.957 31.7969 85.4961 29.3828L85.5312 29.1367C85.5312 28.8555 85.3203 28.5742 84.8984 28.293C84.0312 27.7305 83.293 26.6992 82.6836 25.1992C81.8633 22.9023 81.4531 20.8984 81.4531 19.1875C81.4531 18.3203 81.6523 17.1836 82.0508 15.7773C82.4961 14.2305 83.4102 13.3867 84.793 13.2461C85.8242 13.2461 86.6094 14.2305 87.1484 16.1992C87.4766 17.7695 87.6523 19.1875 87.6758 20.4531C87.6758 21.7188 87.6289 22.8086 87.5352 23.7227C87.4883 24.1914 87.4648 24.6133 87.4648 24.9883C87.4648 25.6914 87.5469 26.3125 87.7109 26.8516C87.8984 27.3906 88.5664 27.6602 89.7148 27.6602C90.6289 27.6602 91.6133 27.6016 92.668 27.4844C93.5586 27.3906 94.25 27.3438 94.7422 27.3438C95.3984 27.3438 95.7266 27.4492 95.7266 27.6602C95.7266 27.9883 95.0469 28.3398 93.6875 28.7148C92.0703 29.207 90.5117 29.4531 89.0117 29.4531C88.6133 29.4531 88.2148 29.4297 87.8164 29.3828C87.5352 29.3828 87.3242 29.6055 87.1836 30.0508C87.043 30.4961 86.9023 31.1406 86.7617 31.9844C86.1992 35.9922 84.8047 39.6367 82.5781 42.918C81.6172 44.1836 80.5742 44.9336 79.4492 45.168C78.6055 45.3555 77.8438 45.4492 77.1641 45.4492ZM99.9805 26.6055C100.051 26.6055 100.133 26.582 100.227 26.5352C101.656 25.832 102.629 25.0352 103.145 24.1445C103.52 23.5117 103.707 22.9844 103.707 22.5625C103.707 22.0703 103.543 21.8242 103.215 21.8242C103.004 21.8242 102.629 22.0352 102.09 22.457C101.574 22.8555 100.824 24.1094 99.8398 26.2188L99.8047 26.4297C99.8047 26.5469 99.8633 26.6055 99.9805 26.6055ZM101.281 43.4102C100.789 43.4102 100.297 43.375 99.8047 43.3047C99.6641 43.2812 99.5117 43.2695 99.3477 43.2695H99.0664C97.9883 43.2695 96.9805 42.9531 96.043 42.3203C93.5586 40.375 92.3164 37.6328 92.3164 34.0938C92.3164 31.9609 92.7969 29.6875 93.7578 27.2734C94.7422 24.8594 96.207 22.8438 98.1523 21.2266C99.6055 20.0312 101.152 19.4336 102.793 19.4336C103.332 19.4336 103.871 19.4922 104.41 19.6094C105.77 20.0781 106.449 20.9805 106.449 22.3164C106.449 22.4102 106.414 22.8672 106.344 23.6875C106.297 24.4844 105.664 25.5391 104.445 26.8516C103.344 28.0469 101.961 28.6445 100.297 28.6445L99.3828 28.5742C99.2422 28.5742 99.125 28.6094 99.0312 28.6797C98.9375 28.7266 98.8555 28.9141 98.7852 29.2422C98.4336 30.7656 98.2578 32.3359 98.2578 33.9531C98.2578 34.1406 98.2695 34.7383 98.293 35.7461C98.3164 36.7539 98.5977 37.8203 99.1367 38.9453C99.5586 39.8125 100.133 40.2461 100.859 40.2461C101.094 40.2461 101.34 40.1992 101.598 40.1055C104.012 39.0977 106.227 37.6445 108.242 35.7461C110.258 33.8242 111.992 31.9961 113.445 30.2617C114.312 29.2539 115.062 28.4336 115.695 27.8008C116.328 27.168 116.82 26.8516 117.172 26.8516C117.781 26.8984 118.086 27.1562 118.086 27.625C118.086 27.7656 118.039 27.9297 117.945 28.1172C114.57 34.4219 110.961 38.8867 107.117 41.5117C105.289 42.7773 103.344 43.4102 101.281 43.4102Z" fill="black"/>
</svg>
