<svg width="75" height="49" viewBox="0 0 75 49" fill="none" xmlns="http://www.w3.org/2000/svg">
<path d="M16.3125 12.9062C16.7292 12.0729 16.9375 11.3542 16.9375 10.75L16.8438 11C16.5521 11.5833 16.375 12.2188 16.3125 12.9062ZM15.4062 43.2812C14.6354 43.2812 13.7292 43.0833 12.6875 42.6875C11.6458 42.2917 10.7604 41.5833 10.0312 40.5625C8.82292 38.7083 8.10417 36.5312 7.875 34.0312C7.77083 32.9271 7.71875 31.8229 7.71875 30.7188C7.71875 29.3438 7.83333 27.6979 8.0625 25.7812C8.47917 22.5104 9.14583 19.5104 10.0625 16.7812C10.0417 16.7604 9.98958 16.75 9.90625 16.75C9.69792 16.75 8.65625 16.9896 6.78125 17.4688C4.07292 18.1979 2.4375 18.5625 1.875 18.5625C1.66667 18.5625 1.45833 18.5521 1.25 18.5312C1.02083 18.4896 0.802083 18.4688 0.59375 18.4688C0.385417 18.4479 0.28125 18.2604 0.28125 17.9062C0.28125 17.3438 0.5625 16.9479 1.125 16.7188C3.83333 15.5938 6.375 14.7917 8.75 14.3125C9.5625 14.1458 10.1875 13.9792 10.625 13.8125C11.0833 13.6458 11.3854 13.3854 11.5312 13.0312C13.7812 7.38542 15.8854 4.5625 17.8438 4.5625C18.4479 4.5625 18.9375 4.80208 19.3125 5.28125C19.7083 5.73958 19.9167 6.19792 19.9375 6.65625C19.9167 7.63542 19.5938 9.20833 18.9688 11.375C18.8438 11.875 18.7604 12.1667 18.7188 12.25C18.6979 12.3333 18.6875 12.4479 18.6875 12.5938L18.7188 12.8438C21.1979 12.9062 23.0208 13.1667 24.1875 13.625C25.6458 14.2083 26.375 14.8646 26.375 15.5938C26.375 15.8438 26.25 16.0312 26 16.1562C25.8958 16.1979 25.7917 16.2188 25.6875 16.2188C25.375 16.2188 25 16.0312 24.5625 15.6562C24.1458 15.2604 23.4271 14.9583 22.4062 14.75C21.8646 14.6458 21.3333 14.5938 20.8125 14.5938C20.3542 14.5938 19.7604 14.6562 19.0312 14.7812C18.3229 14.9062 17.8333 15.3229 17.5625 16.0312C16.9167 18.1146 16.2917 19.7917 15.6875 21.0625C15.1042 22.3333 14.6042 23.3333 14.1875 24.0625C13.7708 24.7708 13.5417 25.2917 13.5 25.625C13.3333 27.1875 13.25 28.7604 13.25 30.3438C13.25 31.1979 13.2917 32.4583 13.375 34.125C13.4583 35.7708 14.0729 37.6875 15.2188 39.875C15.3646 40.0833 15.5729 40.1875 15.8438 40.1875C16.2604 40.1875 16.9375 39.8333 17.875 39.125C18.8333 38.4167 20.0104 37.125 21.4062 35.25C23.3021 32.6667 24.7604 29.9062 25.7812 26.9688C26.2396 25.6146 26.6562 24.9375 27.0312 24.9375C27.1771 24.9375 27.3542 25.0104 27.5625 25.1562C28.0208 25.4062 28.25 25.7708 28.25 26.25C28.25 26.7292 28.1042 27.4271 27.8125 28.3438C24.7917 38.3021 20.6562 43.2812 15.4062 43.2812ZM32.5938 19.5312C33.3021 19.3021 34.2083 18.1667 35.3125 16.125C36.4167 14.0833 37.3125 11.8958 38 9.5625C38.3542 8.3125 38.5312 7.23958 38.5312 6.34375C38.5312 5.55208 38.3958 4.88542 38.125 4.34375C37.2708 5.07292 36.4688 6.44792 35.7188 8.46875C34.9896 10.4688 34.3438 12.5417 33.7812 14.6875C33.2396 16.8333 32.8438 18.4479 32.5938 19.5312ZM40.9688 48.4375C37.8854 48.4375 36.3438 46.2396 36.3438 41.8438C36.3438 38.8854 36.9583 34.9583 38.1875 30.0625C38.7083 27.8958 38.9792 26.3958 39 25.5625C38.6458 25.6667 37.8854 26.4792 36.7188 28C35.5729 29.5 34.3646 31.2917 33.0938 33.375C31.8229 35.4583 30.8125 37.4271 30.0625 39.2812C29.7708 40.0104 29.4479 40.4167 29.0938 40.5C28.9688 40.5417 28.8229 40.5625 28.6562 40.5625C28.5104 40.5625 27.9062 40.4375 26.8438 40.1875C26.2812 39.9167 25.8438 38.2083 25.5312 35.0625C25.4271 34.0208 25.375 32.9167 25.375 31.75C25.375 29.4375 25.5833 26.8854 26 24.0938C27.1458 17.6562 28.5938 12.6146 30.3438 8.96875C32.9688 3.44792 35.5938 0.6875 38.2188 0.6875C38.8021 0.6875 39.3229 0.875 39.7812 1.25C40.7812 2.0625 41.2812 3.5625 41.2812 5.75C41.2812 6 41.2396 6.85417 41.1562 8.3125C41.0938 9.77083 40.0833 12.5104 38.125 16.5312C36.625 19.4688 34.5833 21.9583 32 24C31.7083 24.25 31.3854 25.3854 31.0312 27.4062C30.7604 28.9479 30.625 30 30.625 30.5625V30.6562C33.375 26.5938 35.8229 23.9062 37.9688 22.5938C38.5938 22.1979 39.1979 22 39.7812 22C40.4479 22 41.0833 22.2708 41.6875 22.8125C42.5 23.7292 42.9062 25.0625 42.9062 26.8125C42.9062 28.6042 42.6771 30.8958 42.2188 33.6875C41.6979 37.0833 41.4375 39.6667 41.4375 41.4375C41.4375 42.75 41.5625 43.9792 41.8125 45.125H41.875C42.0208 45.125 42.2083 45.0208 42.4375 44.8125C42.9167 44.375 43.3229 43.9062 43.6562 43.4062C45.8646 40.3229 47.6042 37.4792 48.875 34.875C50.1458 32.25 51.125 30.0625 51.8125 28.3125C52.3542 26.9167 52.8125 25.8958 53.1875 25.25C53.3542 25.0208 53.5521 24.9062 53.7812 24.9062C54.2188 24.9062 54.4375 25.1042 54.4375 25.5C54.4375 25.5833 54.2083 26.5 53.75 28.25C53.0833 31.0625 52.2812 33.9167 51.3438 36.8125C50.4271 39.7083 49.2708 42.2188 47.875 44.3438C46.0833 47.0729 43.7812 48.4375 40.9688 48.4375ZM58.2812 25.0938C58.3438 25.0938 58.4167 25.0729 58.5 25.0312C59.7708 24.4062 60.6354 23.6979 61.0938 22.9062C61.4271 22.3438 61.5938 21.875 61.5938 21.5C61.5938 21.0625 61.4479 20.8438 61.1562 20.8438C60.9688 20.8438 60.6354 21.0312 60.1562 21.4062C59.6979 21.7604 59.0312 22.875 58.1562 24.75L58.125 24.9375C58.125 25.0417 58.1771 25.0938 58.2812 25.0938ZM59.4375 40.0312C59 40.0312 58.5625 40 58.125 39.9375C58 39.9167 57.8646 39.9062 57.7188 39.9062H57.4688C56.5104 39.9062 55.6146 39.625 54.7812 39.0625C52.5729 37.3333 51.4688 34.8958 51.4688 31.75C51.4688 29.8542 51.8958 27.8333 52.75 25.6875C53.625 23.5417 54.9271 21.75 56.6562 20.3125C57.9479 19.25 59.3229 18.7188 60.7812 18.7188C61.2604 18.7188 61.7396 18.7708 62.2188 18.875C63.4271 19.2917 64.0312 20.0938 64.0312 21.2812C64.0312 21.3646 64 21.7708 63.9375 22.5C63.8958 23.2083 63.3333 24.1458 62.25 25.3125C61.2708 26.375 60.0417 26.9062 58.5625 26.9062L57.75 26.8438C57.625 26.8438 57.5208 26.875 57.4375 26.9375C57.3542 26.9792 57.2812 27.1458 57.2188 27.4375C56.9062 28.7917 56.75 30.1875 56.75 31.625C56.75 31.7917 56.7604 32.3229 56.7812 33.2188C56.8021 34.1146 57.0521 35.0625 57.5312 36.0625C57.9062 36.8333 58.4167 37.2188 59.0625 37.2188C59.2708 37.2188 59.4896 37.1771 59.7188 37.0938C61.8646 36.1979 63.8333 34.9062 65.625 33.2188C67.4167 31.5104 68.9583 29.8854 70.25 28.3438C71.0208 27.4479 71.6875 26.7188 72.25 26.1562C72.8125 25.5938 73.25 25.3125 73.5625 25.3125C74.1042 25.3542 74.375 25.5833 74.375 26C74.375 26.125 74.3333 26.2708 74.25 26.4375C71.25 32.0417 68.0417 36.0104 64.625 38.3438C63 39.4688 61.2708 40.0312 59.4375 40.0312Z" fill="black"/>
</svg>
